<?xml version="1.0" encoding="UTF-8"?><svg width="165.768" height="43.18" overflow="hidden" preserveAspectRatio="xMidYMid meet" id="uuid-f42c4ae3-6377-4ca7-bbe5-70ce073adcb9" xmlns="http://www.w3.org/2000/svg" xmlns:xlink="http://www.w3.org/1999/xlink" viewBox="0 0 165.768 43.18"><clipPath id="sy-crop-b7975b08"><rect x="0" y="0" width="165.768" height="43.18"/></clipPath><g clip-path="url(#sy-crop-b7975b08)"><defs><linearGradient id="uuid-d8209c37-c1ce-4f4e-85f3-528643ca16d8" x1="5567.059" y1="592.125" x2="5568.059" y2="592.125" gradientTransform="translate(-19578.522 -184215.149) rotate(90) scale(33.091 -33.091)" gradientUnits="userSpaceOnUse"><stop offset="0" stop-color="#6e8fc9"/><stop offset=".175" stop-color="#7795ca"/><stop offset=".473" stop-color="#92a7cc"/><stop offset=".853" stop-color="#bdc5d1"/><stop offset="1" stop-color="#d0d2d3"/></linearGradient><linearGradient id="uuid-9078df4f-c096-4517-8b71-20a879b124dc" y1="592.125" y2="592.125" gradientTransform="translate(-19552.573 -184215.149) rotate(90) scale(33.091 -33.091)" xlink:href="#uuid-d8209c37-c1ce-4f4e-85f3-528643ca16d8"/><linearGradient id="uuid-4208b333-ddc6-44f0-ac37-f3e3a82babb7" y1="592.125" y2="592.125" gradientTransform="translate(-19525.667 -184215.149) rotate(90) scale(33.091 -33.091)" xlink:href="#uuid-d8209c37-c1ce-4f4e-85f3-528643ca16d8"/><linearGradient id="uuid-405eb59d-5934-4d25-b367-6fef47f35a7d" y1="592.125" y2="592.125" gradientTransform="translate(-19443.75 -184215.149) rotate(90) scale(33.091 -33.091)" xlink:href="#uuid-d8209c37-c1ce-4f4e-85f3-528643ca16d8"/><linearGradient id="uuid-dae147bd-5354-45ff-8fca-87aa27ed0b44" y1="592.125" y2="592.125" gradientTransform="translate(-19469.697 -184215.149) rotate(90) scale(33.091 -33.091)" xlink:href="#uuid-d8209c37-c1ce-4f4e-85f3-528643ca16d8"/><linearGradient id="uuid-5401850f-74b0-4c75-ab77-9c68f90f3ba5" y1="592.125" y2="592.125" gradientTransform="translate(-19496.604 -184215.149) rotate(90) scale(33.091 -33.091)" xlink:href="#uuid-d8209c37-c1ce-4f4e-85f3-528643ca16d8"/></defs><g id="uuid-2a949edb-85c7-411d-a908-50ade052d567"><rect x=".39" y=".141" width="82.615" height="41.364" fill="#808184"/><polygon points=".39 41.505 .39 41.363 82.864 41.363 82.864 .283 .533 .283 .532 41.505 .39 41.505 .39 41.363 .39 41.505 .248 41.505 .248 0 83.146 0 83.146 41.647 .248 41.647 .248 41.505 .39 41.505" fill="#231f20"/><polygon points="2.025 2.192 2.025 2.05 82.676 2.05 82.818 2.192 82.818 39.419 82.676 39.561 2.025 39.561 1.882 39.419 1.882 2.192 2.025 2.05 2.025 2.192 2.166 2.192 2.166 39.278 82.535 39.278 82.535 2.334 2.025 2.334 2.025 2.192 2.166 2.192 2.025 2.192"/><polyline points="3.947 4.119 27.01 4.119 27.01 4.402 3.947 4.402"/><polyline points="28.934 4.119 53.917 4.119 53.917 4.402 28.934 4.402"/><polyline points="55.84 4.119 80.825 4.119 80.825 4.402 55.84 4.402"/><polyline points="54.06 2.193 54.06 39.42 53.777 39.42 53.777 2.193"/><polyline points="80.967 2.193 80.967 39.42 80.685 39.42 80.685 2.193"/><polyline points="53.918 37.494 28.934 37.494 28.934 37.211 53.918 37.211"/><polyline points="80.826 37.494 55.84 37.494 55.84 37.211 80.826 37.211"/><polyline points="27.011 37.494 3.948 37.494 3.948 37.211 27.011 37.211"/><polyline points="3.806 39.42 3.806 2.193 4.088 2.193 4.088 39.42"/><polyline points="27.151 2.193 27.151 39.42 26.869 39.42 26.869 2.193"/><polyline points="29.074 2.193 29.074 39.42 28.792 39.42 28.792 2.193"/><polyline points="55.98 2.193 55.98 39.42 55.698 39.42 55.698 2.193"/><polyline points=".208 .028 2.13 2.096 1.923 2.288 0 .221"/><polyline points="82.574 2.097 84.496 .029 84.703 .222 82.781 2.29"/><polyline points="0 41.392 1.923 39.324 2.13 39.517 .207 41.585"/><rect x="3.945" y="4.262" width="23.065" height="33.091" fill="url(#uuid-d8209c37-c1ce-4f4e-85f3-528643ca16d8)"/><rect x="3.945" y="4.262" width="23.065" height="33.091" fill="none"/><polygon points="3.947 4.26 3.947 4.118 27.151 4.118 27.151 37.493 3.804 37.493 3.804 4.118 3.947 4.118 3.947 4.26 4.088 4.26 4.088 37.209 26.868 37.21 26.868 4.402 3.947 4.402 3.947 4.26 4.088 4.26 3.947 4.26" fill="#231f20"/><rect x="28.934" y="4.262" width="24.986" height="33.091" fill="url(#uuid-9078df4f-c096-4517-8b71-20a879b124dc)"/><rect x="28.934" y="4.262" width="24.986" height="33.091" fill="none"/><polygon points="28.933 4.26 28.933 4.118 54.06 4.118 54.06 37.493 28.791 37.493 28.791 4.118 28.933 4.118 28.933 4.26 29.075 4.26 29.075 37.21 53.777 37.21 53.777 4.402 28.933 4.402 28.933 4.26 29.075 4.26 28.933 4.26" fill="#231f20"/><rect x="55.84" y="4.262" width="24.987" height="33.091" fill="url(#uuid-4208b333-ddc6-44f0-ac37-f3e3a82babb7)"/><rect x="55.84" y="4.262" width="24.987" height="33.091" fill="none"/><polygon points="55.839 4.26 55.839 4.118 80.966 4.118 80.966 37.493 55.697 37.493 55.697 4.118 55.839 4.118 55.839 4.26 55.981 4.26 55.981 37.21 80.683 37.21 80.683 4.402 55.839 4.402 55.839 4.26 55.981 4.26 55.839 4.26" fill="#231f20"/><rect x="39.51" y="21.468" width="5.378" height=".283"/><rect x="66.416" y="21.468" width="5.378" height=".283"/><polyline points="36.607 21.472 39.472 20.722 39.544 20.996 36.679 21.746"/><polyline points="63.516 21.472 66.38 20.722 66.452 20.996 63.588 21.746"/><rect x="39.368" y="20.859" width=".284" height=".75"/><rect x="66.275" y="20.859" width=".284" height=".75"/><polyline points="36.679 21.472 39.544 22.222 39.472 22.496 36.608 21.746"/><polyline points="63.587 21.472 66.451 22.222 66.379 22.496 63.516 21.746"/><rect x="39.368" y="21.609" width=".283" height=".75"/><rect x="66.275" y="21.609" width=".283" height=".75"/><rect x="11.336" y="21.468" width="5.378" height=".283"/><polyline points="19.542 21.746 16.678 20.996 16.75 20.722 19.614 21.472"/><rect x="16.571" y="20.859" width=".283" height=".75"/><polyline points="19.613 21.746 16.75 22.496 16.677 22.222 19.542 21.472"/><rect x="16.571" y="21.609" width=".283" height=".75"/><polygon points="36.644 21.609 39.508 22.359 39.508 21.609 39.508 20.859 36.644 21.609" fill="#231f20" fill-rule="evenodd"/><polygon points="36.644 21.609 36.679 21.472 39.367 22.176 39.367 21.609 39.367 21.042 36.679 21.746 36.644 21.609 36.679 21.472 36.644 21.609 36.608 21.472 39.65 20.676 39.65 21.609 39.65 22.359 39.65 22.542 36.085 21.609 36.608 21.472 36.644 21.609" fill="#231f20"/><polygon points="63.552 21.609 66.415 22.359 66.415 21.609 66.415 20.859 63.552 21.609" fill="#231f20" fill-rule="evenodd"/><polygon points="63.552 21.609 63.587 21.472 66.274 22.176 66.274 21.609 66.274 21.042 63.587 21.746 63.552 21.609 63.587 21.472 63.552 21.609 63.516 21.472 66.557 20.676 66.557 21.609 66.557 22.359 66.557 22.542 62.993 21.609 63.516 21.472 63.552 21.609" fill="#231f20"/><polygon points="16.713 22.358 19.577 21.608 16.713 20.858 16.713 21.608 16.713 22.358" fill="#231f20" fill-rule="evenodd"/><polygon points="16.713 22.358 16.677 22.221 19.019 21.608 16.854 21.041 16.854 21.608 16.854 22.358 16.713 22.358 16.677 22.221 16.713 22.358 16.57 22.358 16.57 21.608 16.57 20.858 16.57 20.675 20.137 21.608 16.57 22.541 16.57 22.358 16.713 22.358" fill="#231f20"/><rect x="83.026" y=".141" width="82.6" height="41.364" fill="#808184"/><polygon points="165.626 41.505 165.626 41.647 82.885 41.647 82.885 0 165.768 0 165.768 41.647 165.626 41.647 165.626 41.505 165.484 41.505 165.484 .283 83.168 .283 83.168 41.364 165.626 41.363 165.626 41.505 165.484 41.505 165.626 41.505" fill="#231f20"/><polygon points="163.703 2.192 163.703 2.334 83.194 2.334 83.193 39.278 163.561 39.278 163.561 2.192 163.703 2.192 163.703 2.334 163.703 2.192 163.844 2.192 163.844 39.419 163.703 39.561 83.052 39.561 82.91 39.419 82.91 2.192 83.052 2.05 163.703 2.05 163.844 2.192 163.703 2.192"/><rect x="138.719" y="4.12" width="23.063" height=".283"/><rect x="111.811" y="4.12" width="24.986" height=".283"/><rect x="84.904" y="4.12" width="24.985" height=".283"/><rect x="111.669" y="2.193" width=".283" height="37.227"/><rect x="84.762" y="2.193" width=".284" height="37.227"/><rect x="111.811" y="37.21" width="24.985" height=".284"/><rect x="84.904" y="37.21" width="24.985" height=".284"/><rect x="138.719" y="37.21" width="23.062" height=".284"/><rect x="161.641" y="2.194" width=".283" height="37.227"/><rect x="138.577" y="2.193" width=".283" height="37.227"/><rect x="136.656" y="2.193" width=".283" height="37.227"/><rect x="109.748" y="2.193" width=".282" height="37.227"/><polyline points="165.729 .221 163.806 2.289 163.599 2.096 165.522 .028"/><polyline points="165.521 41.585 163.598 39.517 163.805 39.324 165.727 41.392"/><rect x="138.719" y="4.262" width="23.062" height="33.091" fill="url(#uuid-405eb59d-5934-4d25-b367-6fef47f35a7d)"/><rect x="138.719" y="4.262" width="23.062" height="33.091" fill="none"/><polygon points="161.781 4.26 161.781 4.402 138.86 4.402 138.86 37.21 161.638 37.21 161.638 4.26 161.781 4.26 161.781 4.402 161.781 4.26 161.922 4.26 161.922 37.493 138.577 37.493 138.577 4.118 161.922 4.118 161.922 4.26 161.781 4.26" fill="#231f20"/><rect x="111.81" y="4.262" width="24.985" height="33.091" fill="url(#uuid-dae147bd-5354-45ff-8fca-87aa27ed0b44)"/><rect x="111.81" y="4.262" width="24.985" height="33.091" fill="none"/><polygon points="136.796 4.26 136.796 4.402 111.951 4.402 111.951 37.21 136.654 37.21 136.654 4.26 136.796 4.26 136.796 4.402 136.796 4.26 136.937 4.26 136.937 37.493 111.668 37.493 111.668 4.118 136.937 4.118 136.937 4.26 136.796 4.26" fill="#231f20"/><rect x="84.905" y="4.262" width="24.983" height="33.091" fill="url(#uuid-5401850f-74b0-4c75-ab77-9c68f90f3ba5)"/><rect x="84.905" y="4.262" width="24.983" height="33.091" fill="none"/><polygon points="109.888 4.26 109.888 4.402 85.044 4.402 85.044 37.21 109.746 37.21 109.746 4.26 109.888 4.26 109.888 4.402 109.888 4.26 110.03 4.26 110.03 37.493 84.761 37.493 84.761 4.118 110.03 4.118 110.03 4.26 109.888 4.26" fill="#231f20"/><rect x="120.843" y="21.468" width="5.378" height=".283"/><rect x="93.936" y="21.468" width="5.378" height=".283"/><polyline points="129.049 21.746 126.184 20.996 126.256 20.722 129.121 21.472"/><polyline points="102.142 21.746 99.278 20.996 99.35 20.722 102.214 21.472"/><rect x="126.078" y="20.859" width=".284" height=".75"/><rect x="99.173" y="20.859" width=".283" height=".75"/><polyline points="129.12 21.746 126.256 22.496 126.183 22.222 129.049 21.472"/><polyline points="102.213 21.746 99.35 22.496 99.277 22.222 102.142 21.472"/><rect x="126.078" y="21.609" width=".283" height=".75"/><rect x="99.173" y="21.609" width=".282" height=".75"/><rect x="149.016" y="21.468" width="5.377" height=".283"/><polyline points="146.114 21.472 148.979 20.722 149.051 20.996 146.186 21.746"/><rect x="148.874" y="20.859" width=".283" height=".75"/><polyline points="146.186 21.472 149.051 22.222 148.979 22.496 146.115 21.746"/><rect x="148.874" y="21.609" width=".283" height=".75"/><polygon points="129.085 21.609 126.221 22.359 126.221 21.609 126.221 20.859 129.085 21.609" fill="#231f20" fill-rule="evenodd"/><polygon points="129.085 21.609 129.12 21.746 126.078 22.542 126.078 21.609 126.078 20.859 126.078 20.676 129.644 21.609 129.12 21.746 129.085 21.609 129.049 21.746 126.361 21.042 126.361 21.609 126.361 22.176 129.049 21.472 129.085 21.609 129.049 21.746 129.085 21.609" fill="#231f20"/><polygon points="102.178 21.609 99.314 22.359 99.314 21.609 99.314 20.859 102.178 21.609" fill="#231f20" fill-rule="evenodd"/><polygon points="102.178 21.609 102.214 21.746 99.172 22.542 99.172 21.609 99.172 20.859 99.172 20.676 102.737 21.609 102.214 21.746 102.178 21.609 102.142 21.746 99.454 21.042 99.454 21.609 99.454 22.176 102.142 21.472 102.178 21.609 102.142 21.746 102.178 21.609" fill="#231f20"/><polygon points="149.016 22.358 146.152 21.608 149.016 20.858 149.016 21.608 149.016 22.358" fill="#231f20" fill-rule="evenodd"/><polygon points="149.016 22.358 148.98 22.495 145.594 21.608 149.157 20.675 149.157 21.608 149.157 22.358 149.157 22.541 148.98 22.495 149.016 22.358 148.873 22.358 148.873 21.608 148.873 21.041 146.709 21.608 149.052 22.221 149.016 22.358 148.873 22.358 149.016 22.358" fill="#231f20"/><rect x="81.916" y="39.284" width="5.525" height=".283"/><rect x="81.555" y="39.561" width="4.935" height="1.83" fill="#808184"/><rect x="82.267" y=".232" width="4.688" height="1.872" fill="#808184"/><rect x="82.225" y="2.056" width="5.526" height=".283"/><path d="M130.447,51.726l.3-.458.294.458.26-.171-.307-.445.471-.15-.089-.288-.478.185.02-.506h-.348l.019.506-.478-.185-.089.288.473.15-.302.445.254.171ZM127.737,54.641l-.603-1.485.61-1.485h-.499l-.438,1.143-.438-1.143h-.5l.616,1.485-.603,1.485-1.231-2.977h-.574l1.518,3.572h.499l.713-1.745.718,1.745h.499l1.518-3.572h-.581l-1.224,2.977ZM120.981,52.94c.06-.161.145-.303.253-.424.106-.12.232-.216.376-.287.143-.071.298-.106.462-.106s.318.034.462.102c.143.069.269.164.38.284.109.121.195.263.255.425.063.162.093.334.093.516,0,.187-.03.362-.093.524-.06.162-.146.303-.255.424-.111.121-.237.215-.38.284-.144.068-.298.102-.462.102s-.319-.034-.462-.102c-.144-.069-.27-.162-.376-.281-.108-.118-.193-.257-.253-.417-.063-.16-.094-.333-.094-.52s.031-.362.094-.524M122.808,55.154c.221-.1.41-.235.57-.404.161-.169.284-.365.369-.588.087-.224.13-.459.13-.705,0-.251-.044-.488-.132-.712-.089-.223-.212-.419-.371-.588-.157-.169-.346-.303-.571-.404-.222-.1-.467-.15-.731-.15s-.507.05-.73.15c-.22.101-.409.235-.566.404-.158.169-.281.365-.37.588-.089.224-.133.461-.133.712,0,.246.043.481.13.705.086.223.208.419.366.588.156.169.346.304.567.404.222.1.466.15.736.15.268,0,.513-.05.736-.15M117.34,54.678c-.147-.07-.276-.165-.386-.284-.11-.118-.197-.258-.26-.42-.065-.162-.095-.332-.095-.51,0-.169.026-.334.082-.496.054-.162.133-.306.235-.431.103-.126.227-.226.37-.301.143-.076.304-.113.483-.113.113,0,.228.022.345.065.116.043.225.103.328.178.102.075.195.164.277.267.082.102.144.211.185.325v1.026c-.024.109-.073.213-.148.311-.074.098-.164.184-.266.257-.103.073-.212.13-.328.171-.117.041-.229.061-.339.061-.173,0-.334-.035-.483-.106M118.421,55.109c.236-.13.423-.311.565-.544v.302c0,.104.045.197.134.277.088.079.192.119.311.119l.112-.007.155-.02v-.52c-.128-.005-.193-.078-.193-.219v-4.256h-.601v2.135c-.132-.214-.312-.397-.537-.547-.226-.151-.483-.226-.769-.226-.238,0-.455.049-.654.147-.198.098-.369.231-.513.4s-.257.366-.336.592c-.079.226-.119.464-.119.715,0,.246.042.481.127.705.084.223.2.419.352.588.15.169.331.304.54.404.21.1.438.15.684.15.261,0,.508-.065.742-.195M115.271,53.101c0-.214-.018-.412-.052-.595-.033-.182-.092-.341-.174-.476-.083-.134-.191-.239-.329-.314-.136-.076-.307-.113-.512-.113-.315,0-.606.075-.873.226-.266.15-.47.351-.613.602v-.767h-.547v3.572h.603v-2.155c.041-.137.102-.263.184-.377.082-.114.178-.212.288-.294s.226-.147.348-.195c.123-.048.246-.072.37-.072.238,0,.413.087.531.26.116.174.173.452.173.835v1.998h.603v-2.135ZM111.2,50.241h-.602v.753h.602v-.753ZM111.2,51.664h-.602v3.572h.602v-3.572ZM108.231,54.641l-.603-1.485.61-1.485h-.5l-.438,1.143-.437-1.143h-.5l.616,1.485-.603,1.485-1.231-2.977h-.574l1.518,3.572h.499l.712-1.745.719,1.745h.499l1.519-3.572h-.581l-1.225,2.977ZM99.774,53.211c.014-.169.054-.324.12-.466.065-.141.152-.263.26-.366.106-.102.23-.182.373-.239.14-.057.292-.086.452-.086.158,0,.31.029.45.086.142.057.267.136.373.236.108.1.196.222.268.366.07.144.113.3.126.469h-2.422ZM101.485,55.236c.164-.046.312-.109.448-.188.134-.08.253-.175.356-.284.102-.11.183-.231.243-.363l-.521-.144c-.036.092-.09.174-.16.247-.071.073-.152.134-.243.185-.091.05-.19.09-.294.119-.106.03-.212.045-.322.045-.156,0-.302-.03-.442-.089-.138-.059-.263-.142-.373-.247-.108-.104-.197-.23-.266-.376s-.11-.308-.123-.486h2.962l.01-.095.004-.137c0-.237-.042-.466-.127-.688-.085-.221-.204-.415-.359-.581-.156-.167-.343-.3-.565-.401-.22-.1-.466-.15-.734-.15-.271,0-.517.049-.739.147-.224.098-.417.231-.579.4-.163.169-.288.365-.376.589-.089.223-.133.46-.133.711s.044.489.133.715c.088.226.212.423.373.592.16.169.35.302.575.4.223.098.469.147.739.147.178,0,.349-.023.513-.068M97.448,54.531c0,.237.067.422.202.554.134.133.317.199.551.199.105,0,.225-.014.362-.041.137-.028.256-.062.355-.103l-.095-.486-.192.058-.177.024c-.128,0-.227-.037-.298-.112-.071-.076-.107-.179-.107-.312v-4.071h-.601v4.29ZM96.462,50.241h-.602v.753h.602v-.753ZM96.462,51.664h-.602v3.572h.602v-3.572ZM95.156,54.579c-.036.023-.105.054-.202.092-.098.039-.207.059-.326.059-.104,0-.195-.03-.272-.089-.078-.06-.121-.155-.13-.288v-2.216h.8v-.473h-.8v-1.19h-.604v1.19h-.485v.473h.485v2.401c0,.256.081.444.241.565.16.12.348.181.568.181.096,0,.188-.008.276-.024l.247-.062.202-.075.143-.065-.143-.479ZM92.358,55.01c.255-.196.383-.461.383-.794,0-.15-.03-.278-.086-.383-.057-.105-.144-.196-.26-.273-.116-.078-.263-.145-.439-.202-.174-.057-.381-.113-.619-.168-.149-.036-.278-.071-.385-.103-.109-.031-.196-.068-.264-.109l-.148-.144-.043-.205c0-.205.076-.355.229-.448.152-.094.339-.14.558-.14.196,0,.386.033.574.099.186.066.355.165.507.298l.272-.363c-.158-.141-.355-.255-.588-.342-.232-.087-.483-.13-.753-.13-.19,0-.37.024-.537.072-.166.048-.31.118-.433.212-.123.093-.22.21-.291.349-.072.139-.107.297-.107.475,0,.142.024.26.069.356.045.096.119.178.218.246.101.069.229.128.384.178.154.051.34.103.554.157.169.042.317.08.445.117.128.036.233.078.315.123l.185.161.061.222c0,.187-.077.332-.23.435-.152.102-.358.154-.618.154-.233,0-.454-.04-.664-.12-.21-.08-.419-.2-.629-.359l-.261.403c.2.169.441.298.719.387.277.089.561.133.849.133.432,0,.777-.098,1.033-.294M85.198,54.678c-.15-.07-.278-.165-.387-.284-.109-.118-.196-.257-.261-.417-.063-.16-.095-.329-.095-.506,0-.165.028-.328.082-.49.054-.161.132-.306.233-.434.1-.128.222-.23.365-.308.145-.077.308-.116.489-.116.12,0,.237.02.354.061.115.041.224.1.324.175.101.075.191.163.271.263.08.101.144.212.195.336v1.026c-.023.1-.069.198-.138.294-.067.096-.152.181-.253.257-.099.075-.21.135-.329.181-.117.046-.24.068-.369.068-.173,0-.334-.035-.481-.106M85.872,55.229c.123-.032.239-.079.348-.14.11-.062.211-.137.305-.226.093-.089.174-.188.243-.298v.63c0,.187-.033.349-.1.486-.065.136-.153.25-.263.342-.11.091-.239.159-.386.205-.149.045-.306.068-.47.068-.26,0-.502-.052-.724-.157-.224-.105-.407-.262-.548-.472l-.349.308c.169.246.38.439.633.578.254.139.583.209.988.209.251,0,.488-.035.708-.103.222-.068.414-.169.578-.301.165-.132.295-.295.391-.489.096-.194.144-.419.144-.674v-3.531h-.535v.712c-.149-.223-.335-.408-.553-.554-.219-.146-.48-.219-.781-.219-.246,0-.47.049-.673.147-.204.098-.377.231-.524.4-.145.169-.259.366-.339.592-.08.226-.12.464-.12.715,0,.237.04.465.12.684s.194.413.339.582c.147.169.32.303.524.404.203.1.424.15.667.15.127,0,.252-.016.377-.048M83.134,53.101c0-.214-.016-.412-.052-.595-.034-.182-.091-.341-.173-.476-.082-.134-.193-.239-.328-.314-.137-.076-.308-.113-.514-.113-.315,0-.606.075-.872.226-.268.15-.471.351-.613.602v-.767h-.547v3.572h.602v-2.155c.041-.137.103-.263.185-.377.082-.114.177-.212.288-.294.108-.082.224-.147.348-.195.123-.048.247-.072.37-.072.237,0,.414.087.53.26.117.174.175.452.175.835v1.998h.601v-2.135ZM79.064,50.241h-.603v.753h.603v-.753ZM79.064,51.664h-.603v3.572h.603v-3.572ZM77.756,54.579c-.036.023-.103.054-.202.092-.098.039-.205.059-.324.059-.106,0-.196-.03-.274-.089-.078-.06-.121-.155-.129-.288v-2.216h.799v-.473h-.799v-1.19h-.603v1.19h-.485v.473h.485v2.401c0,.256.079.444.239.565.16.12.35.181.569.181.095,0,.187-.008.277-.024l.245-.062.202-.075.145-.065-.145-.479ZM72.414,53.211c.012-.169.052-.324.119-.466.066-.141.153-.263.259-.366.108-.102.233-.182.373-.239.143-.057.292-.086.453-.086.159,0,.309.029.451.086.141.057.265.136.373.236.106.1.195.222.266.366.072.144.114.3.127.469h-2.421ZM74.123,55.236c.165-.046.315-.109.449-.188.134-.08.253-.175.355-.284.104-.11.185-.231.243-.363l-.519-.144c-.037.092-.09.174-.161.247-.072.073-.153.134-.243.185-.091.05-.189.09-.294.119-.105.03-.212.045-.323.045-.154,0-.301-.03-.44-.089-.14-.059-.264-.142-.373-.247-.11-.104-.198-.23-.268-.376-.067-.146-.108-.308-.123-.486h2.964l.01-.095.004-.137c0-.237-.043-.466-.127-.688-.084-.221-.204-.415-.36-.581-.155-.167-.343-.3-.564-.401-.222-.1-.467-.15-.735-.15s-.516.049-.74.147c-.223.098-.416.231-.578.4-.161.169-.288.365-.377.589-.089.223-.133.46-.133.711s.044.489.133.715c.089.226.214.423.373.592.16.169.353.302.576.4.222.098.469.147.739.147.178,0,.348-.023.512-.068M68.37,53.211c.013-.169.053-.324.12-.466.066-.141.153-.263.259-.366.108-.102.232-.182.374-.239.141-.057.291-.086.451-.086s.309.029.452.086c.14.057.264.136.373.236.106.1.195.222.266.366.071.144.113.3.126.469h-2.421ZM70.081,55.236c.164-.046.313-.109.448-.188.134-.08.253-.175.354-.284.104-.11.185-.231.243-.363l-.519-.144c-.036.092-.09.174-.16.247-.072.073-.153.134-.243.185-.092.05-.19.09-.295.119-.106.03-.212.045-.322.045-.154,0-.301-.03-.44-.089-.141-.059-.265-.142-.373-.247-.11-.104-.199-.23-.268-.376-.068-.146-.109-.308-.123-.486h2.962l.012-.095.003-.137c0-.237-.042-.466-.127-.688-.084-.221-.204-.415-.36-.581-.155-.167-.342-.3-.563-.401-.223-.1-.468-.15-.736-.15-.27,0-.515.049-.74.147-.222.098-.416.231-.578.4-.162.169-.287.365-.376.589-.089.223-.133.46-.133.711s.044.489.133.715c.089.226.213.423.373.592.16.169.352.302.575.4.223.098.469.147.739.147.178,0,.348-.023.514-.068M67.049,53.101c0-.214-.018-.412-.054-.595-.038-.182-.096-.341-.178-.476-.082-.134-.194-.239-.332-.314-.14-.076-.312-.113-.517-.113-.589,0-1.043.29-1.361.869-.041-.256-.15-.464-.325-.626-.176-.162-.414-.243-.715-.243-.292,0-.555.072-.787.215-.233.144-.422.348-.569.613v-.767h-.547v3.572h.603v-2.155c.082-.283.221-.51.417-.681.196-.171.415-.257.656-.257.238,0,.415.087.534.26.119.174.178.452.178.835v1.998h.603v-2.149c.082-.278.219-.505.414-.68.193-.176.414-.264.66-.264.236,0,.416.089.537.267.12.178.181.454.181.828v1.998h.602v-2.135ZM58.997,53.101c0-.21-.02-.407-.059-.592-.038-.184-.102-.343-.189-.475-.085-.132-.203-.237-.348-.315-.147-.077-.323-.116-.533-.116-.288,0-.552.073-.794.219-.243.146-.433.349-.576.609v-2.19h-.601v4.995h.601v-2.155c.041-.137.103-.263.183-.377.078-.114.171-.212.273-.294.103-.082.213-.147.332-.195.119-.048.237-.072.356-.072.245,0,.433.09.561.271.128.18.192.455.192.824v1.998h.602v-2.135ZM54.802,55.01c.256-.196.384-.461.384-.794,0-.15-.029-.278-.086-.383-.058-.105-.144-.196-.261-.273-.115-.078-.261-.145-.437-.202-.175-.057-.382-.113-.619-.168-.151-.036-.28-.071-.387-.103-.107-.031-.194-.068-.264-.109l-.146-.144-.044-.205c0-.205.076-.355.228-.448.153-.094.338-.14.558-.14.195,0,.388.033.574.099.188.066.357.165.507.298l.273-.363c-.16-.141-.355-.255-.587-.342-.234-.087-.485-.13-.753-.13-.193,0-.371.024-.537.072-.167.048-.311.118-.434.212-.124.093-.222.21-.291.349-.071.139-.107.297-.107.475,0,.142.023.26.069.356.046.096.119.178.219.246.099.069.228.128.382.178.156.051.34.103.555.157.169.042.316.08.444.117.128.036.234.078.316.123l.184.161.062.222c0,.187-.076.332-.23.435-.152.102-.358.154-.619.154-.232,0-.454-.04-.664-.12-.21-.08-.42-.2-.629-.359l-.259.403c.2.169.44.298.717.387.279.089.562.133.849.133.434,0,.777-.098,1.033-.294M49.493,54.798c-.096-.036-.179-.087-.25-.15l-.164-.226c-.039-.087-.058-.18-.058-.281,0-.205.095-.371.283-.499.19-.128.436-.192.736-.192.315,0,.619.057.911.171v.527c0,.091-.044.18-.13.267-.096.132-.238.238-.421.318-.186.08-.385.12-.6.12-.108,0-.212-.018-.307-.055M50.426,55.137c.244-.112.447-.275.607-.489l.012.253c.015.1.057.185.127.256.072.071.165.106.284.106l.13-.007.158-.02v-.52c-.128-.005-.192-.078-.192-.219v-1.457c0-.456-.132-.81-.393-1.061-.262-.251-.628-.376-1.098-.376-.466,0-.929.155-1.39.465l.2.39c.396-.278.775-.417,1.134-.417.302,0,.535.083.699.25.164.166.247.395.247.687v.287c-.137-.054-.295-.098-.473-.13-.178-.031-.354-.048-.526-.048-.219,0-.421.028-.607.083-.184.054-.344.13-.478.225-.134.096-.239.211-.311.346-.073.135-.11.284-.11.448,0,.16.031.307.093.441.061.135.146.252.252.353.108.1.235.179.38.236.147.057.304.085.473.085.277,0,.539-.056.782-.167M47.631,55.01c.256-.196.384-.461.384-.794,0-.15-.028-.278-.086-.383-.056-.105-.143-.196-.26-.273-.117-.078-.262-.145-.437-.202-.176-.057-.382-.113-.619-.168-.152-.036-.281-.071-.387-.103-.107-.031-.195-.068-.264-.109l-.146-.144-.045-.205c0-.205.077-.355.228-.448.154-.094.339-.14.559-.14.195,0,.388.033.574.099.188.066.357.165.507.298l.274-.363c-.161-.141-.356-.255-.589-.342-.233-.087-.484-.13-.752-.13-.193,0-.371.024-.537.072-.167.048-.312.118-.435.212-.123.093-.221.21-.291.349s-.106.297-.106.475c0,.142.023.26.069.356.045.096.118.178.219.246.099.069.227.128.382.178.156.051.34.103.554.157.17.042.318.08.446.117.126.036.232.078.314.123l.185.161.062.222c0,.187-.077.332-.229.435-.154.102-.361.154-.621.154-.231,0-.454-.04-.663-.12-.21-.08-.42-.2-.63-.359l-.259.403c.201.169.44.298.718.387.279.089.562.133.849.133.433,0,.777-.098,1.032-.294M39.708,51.664l1.334,1.793-1.34,1.779h.636l.979-1.307.055-.103.061.103.979,1.307h.635l-1.341-1.779,1.334-1.793h-.635l-.972,1.314-.061.109-.055-.109-.979-1.314h-.63ZM39.134,50.241h-.602v.753h.602v-.753ZM39.134,51.664h-.602v3.572h.602v-3.572ZM37.602,50.898c-.205-.168-.44-.303-.705-.404-.265-.1-.562-.15-.89-.15-.251,0-.483.031-.697.092-.215.062-.399.154-.555.277-.154.123-.275.274-.362.452-.087.178-.131.383-.131.616,0,.191.032.356.097.492.063.137.158.253.284.349.125.096.28.178.469.247.186.068.403.132.649.191.224.055.424.109.599.161.176.052.323.113.441.181.118.069.208.15.271.243.06.094.092.209.092.346,0,.246-.096.431-.288.554-.191.123-.461.185-.807.185-.188,0-.366-.02-.537-.059-.171-.038-.33-.088-.48-.15-.147-.062-.279-.131-.395-.209-.118-.077-.211-.155-.284-.232l-.295.52c.274.223.579.393.914.509.335.117.69.175,1.064.175.251,0,.483-.027.697-.079.214-.052.401-.134.558-.246.157-.112.281-.253.373-.424.091-.171.137-.373.137-.606,0-.219-.038-.404-.114-.554-.075-.151-.184-.278-.328-.383-.143-.105-.316-.193-.519-.264-.203-.07-.431-.133-.682-.188-.219-.05-.407-.098-.567-.143-.16-.046-.293-.1-.401-.161-.106-.062-.185-.136-.235-.223-.052-.086-.076-.196-.076-.328,0-.246.088-.44.264-.582.174-.141.452-.212.831-.212.146,0,.286.015.421.045.133.029.258.068.373.116.114.048.215.102.307.161.092.059.164.121.22.185l.287-.5Z" fill="#231f20"/></g></g></svg>