<?xml version="1.0" encoding="UTF-8"?><svg width="86.6714" height="43.2312" overflow="hidden" preserveAspectRatio="xMidYMid meet" id="uuid-e124451f-cea8-4575-b0d3-9a825441e2a1" xmlns="http://www.w3.org/2000/svg" xmlns:xlink="http://www.w3.org/1999/xlink" viewBox="7.19184 0 86.6714 43.2312"><clipPath id="sy-crop-78be8e25"><rect x="7.19184" y="0" width="86.6714" height="43.2312"/></clipPath><g clip-path="url(#sy-crop-78be8e25)"><defs><linearGradient id="uuid-f2160a37-6a57-4346-93cb-11c53849f8a7" x1="5386.287" y1="752.426" x2="5387.287" y2="752.426" gradientTransform="translate(-26087.885 -187035.21) rotate(90) scale(34.725 -34.725)" gradientUnits="userSpaceOnUse"><stop offset="0" stop-color="#6e8fc9"/><stop offset=".175" stop-color="#7795ca"/><stop offset=".473" stop-color="#92a7cc"/><stop offset=".853" stop-color="#bdc5d1"/><stop offset="1" stop-color="#d0d2d3"/></linearGradient><linearGradient id="uuid-ab91145d-809b-4ba5-8af5-b0295304f1e2" y1="752.426" y2="752.426" gradientTransform="translate(-26106.491 -187035.21) rotate(90) scale(34.725 -34.725)" xlink:href="#uuid-f2160a37-6a57-4346-93cb-11c53849f8a7"/><linearGradient id="uuid-79d66a03-a1fd-4fb1-9671-39df7a2f4aa6" y1="752.426" y2="752.426" gradientTransform="translate(-26066.263 -187035.21) rotate(90) scale(34.725 -34.725)" xlink:href="#uuid-f2160a37-6a57-4346-93cb-11c53849f8a7"/><linearGradient id="uuid-481f6d7f-87a7-4b3d-b1c9-7242e03a6bfc" y1="752.426" y2="752.426" gradientTransform="translate(-26047.656 -187035.21) rotate(90) scale(34.725 -34.725)" xlink:href="#uuid-f2160a37-6a57-4346-93cb-11c53849f8a7"/></defs><g id="uuid-64efa89c-6fa7-48aa-92f4-0b5931008aac"><polygon points="9.551 .141 9.551 41.522 52 41.522 92.311 41.522 92.311 .141 52 .141 9.551 .141" fill="#808184" fill-rule="evenodd"/><polygon points="9.551 .141 9.692 .141 9.692 41.381 52 41.381 92.168 41.381 92.168 .282 52 .282 9.551 .282 9.551 .141 9.692 .141 9.551 .141 9.551 0 52 0 92.311 0 92.451 .141 92.451 41.522 92.311 41.664 52 41.664 9.551 41.664 9.408 41.522 9.408 .141 9.551 0 9.551 .141" fill="#231f20"/><polyline points="10.658 1.166 50.97 1.166 50.97 1.449 10.658 1.449" fill="#231f20"/><polyline points="50.97 40.497 10.657 40.497 10.657 40.214 50.97 40.214" fill="#231f20"/><polyline points="10.516 41.522 10.516 .141 10.798 .141 10.798 41.522" fill="#231f20"/><polyline points="10.555 40.258 12.216 38.508 12.421 38.703 10.759 40.453" fill="#231f20"/><polyline points="50.33 39.967 49.13 38.704 49.335 38.509 50.534 39.772" fill="#231f20"/><polyline points="50.535 1.891 49.335 3.154 49.13 2.959 50.33 1.696" fill="#231f20"/><polyline points="10.76 1.21 12.422 2.959 12.217 3.154 10.555 1.405" fill="#231f20"/><polyline points="91.205 1.449 50.97 1.449 50.97 1.166 91.205 1.166" fill="#231f20"/><polyline points="50.97 40.214 91.203 40.214 91.203 40.497 50.97 40.497" fill="#231f20"/><polyline points="91.063 41.522 91.063 .141 91.345 .141 91.345 41.522" fill="#231f20"/><polyline points="91.101 40.453 89.44 38.703 89.644 38.508 91.306 40.258" fill="#231f20"/><polyline points="51.328 39.772 52.527 38.509 52.732 38.704 51.533 39.967" fill="#231f20"/><polyline points="51.534 1.696 52.732 2.959 52.528 3.154 51.329 1.891" fill="#231f20"/><polyline points="91.307 1.405 89.645 3.154 89.44 2.959 91.102 1.21" fill="#231f20"/><polyline points="50.574 1.307 50.574 40.356 50.291 40.356 50.291 1.307" fill="#231f20"/><polyline points="51.572 1.307 51.572 40.356 51.29 40.356 51.29 1.307" fill="#231f20"/><rect x="11.098" y="20.831" width=".824" height="3.533" fill="#e5e6e7"/><polygon points="11.923 20.83 11.923 20.971 11.238 20.971 11.237 24.221 11.78 24.221 11.78 20.83 11.923 20.83 11.923 20.971 11.923 20.83 12.064 20.83 12.064 24.362 11.923 24.503 11.097 24.503 10.954 24.362 10.954 20.83 11.097 20.689 11.923 20.689 12.064 20.83 11.923 20.83" fill="#231f20"/><rect x="49.435" y="20.733" width=".828" height="3.532" fill="#e5e6e7"/><polygon points="50.262 20.734 50.262 20.876 49.574 20.876 49.574 24.124 50.118 24.124 50.118 20.734 50.262 20.734 50.262 20.876 50.262 20.734 50.402 20.734 50.402 24.265 50.262 24.407 49.434 24.407 49.292 24.265 49.292 20.734 49.434 20.593 50.262 20.593 50.402 20.734 50.262 20.734" fill="#231f20"/><rect x="51.625" y="20.733" width=".826" height="3.532" fill="#e5e6e7"/><polygon points="52.45 20.734 52.45 20.876 51.765 20.876 51.765 24.124 52.308 24.124 52.308 20.734 52.45 20.734 52.45 20.876 52.45 20.734 52.592 20.734 52.592 24.265 52.45 24.407 51.624 24.407 51.482 24.265 51.482 20.734 51.624 20.593 52.45 20.593 52.592 20.734 52.45 20.734" fill="#231f20"/><rect x="89.939" y="20.831" width=".828" height="3.533" fill="#e5e6e7"/><polygon points="90.767 20.83 90.767 20.971 90.081 20.971 90.08 24.221 90.625 24.221 90.625 20.83 90.767 20.83 90.767 20.971 90.767 20.83 90.908 20.83 90.908 24.362 90.767 24.503 89.939 24.503 89.797 24.362 89.797 20.83 89.939 20.689 90.767 20.689 90.908 20.83 90.767 20.83" fill="#231f20"/><polygon points="30.984 3.057 30.984 2.916 49.185 2.916 49.326 3.057 49.326 38.606 49.185 38.748 30.984 38.748 30.842 38.606 30.842 3.057 30.984 2.916 30.984 3.057 31.125 3.057 31.125 38.465 49.044 38.465 49.044 3.199 30.984 3.199 30.984 3.057 31.125 3.057 30.984 3.057" fill="#231f20"/><polyline points="31.235 38.193 31.235 3.47 31.517 3.47 31.517 38.193" fill="#231f20"/><polyline points="30.984 3.328 48.795 3.328 48.795 3.611 30.984 3.611" fill="#231f20"/><polyline points="48.935 3.47 48.935 38.193 48.653 38.193 48.653 3.47" fill="#231f20"/><polyline points="48.795 38.334 30.983 38.334 30.983 38.051 48.795 38.051" fill="#231f20"/><polygon points="30.293 38.334 12.668 38.334 12.525 38.193 12.525 3.469 12.668 3.328 30.293 3.328 30.293 3.611 12.809 3.611 12.809 38.051 30.293 38.051 30.293 38.334" fill="#231f20"/><polygon points="30.293 38.747 12.273 38.747 12.132 38.606 12.132 3.057 12.273 2.915 30.293 2.915 30.293 3.198 12.415 3.198 12.415 38.464 30.293 38.464 30.293 38.747" fill="#231f20"/><polyline points="30.433 1.307 30.433 40.356 30.151 40.356 30.151 1.307" fill="#231f20"/><polyline points="31.125 1.307 31.125 40.356 30.843 40.356 30.843 1.307" fill="#231f20"/><polyline points="30.664 1.307 30.664 40.356 30.382 40.356 30.382 1.307" fill="#231f20"/><rect x="31.377" y="3.469" width="17.417" height="34.725" fill="url(#uuid-f2160a37-6a57-4346-93cb-11c53849f8a7)"/><rect x="31.377" y="3.469" width="17.417" height="34.725" fill="none"/><polygon points="48.797 3.469 48.797 3.611 31.521 3.611 31.521 38.05 48.654 38.05 48.654 3.469 48.797 3.469 48.797 3.611 48.797 3.469 48.938 3.469 48.938 38.334 31.236 38.334 31.236 3.328 48.938 3.328 48.938 3.469 48.797 3.469" fill="#231f20"/><rect x="12.666" y="3.469" width="17.627" height="34.725" fill="url(#uuid-ab91145d-809b-4ba5-8af5-b0295304f1e2)"/><rect x="12.666" y="3.469" width="17.627" height="34.725" fill="none"/><polygon points="30.293 3.469 30.293 3.611 12.81 3.611 12.81 38.05 30.15 38.05 30.15 3.469 30.293 3.469 30.293 3.611 30.293 3.469 30.434 3.469 30.434 38.334 12.526 38.334 12.526 3.328 30.434 3.328 30.434 3.469 30.293 3.469" fill="#231f20"/><polygon points="70.809 3.057 70.809 3.199 52.747 3.199 52.747 38.465 70.666 38.465 70.666 3.057 70.809 3.057 70.809 3.199 70.809 3.057 70.95 3.057 70.95 38.606 70.809 38.748 52.607 38.748 52.465 38.606 52.465 3.057 52.607 2.916 70.809 2.916 70.95 3.057 70.809 3.057" fill="#231f20"/><rect x="70.276" y="3.47" width=".282" height="34.723" fill="#231f20"/><rect x="52.998" y="3.328" width="17.811" height=".284" fill="#231f20"/><rect x="53" y="38.051" width="17.809" height=".284" fill="#231f20"/><polygon points="71.502 38.051 88.984 38.051 88.984 3.611 71.502 3.611 71.502 3.328 89.127 3.328 89.268 3.469 89.268 38.192 89.127 38.334 71.502 38.334 71.502 38.051" fill="#231f20"/><polygon points="71.502 38.464 89.378 38.464 89.378 3.198 71.502 3.198 71.502 2.915 89.52 2.915 89.66 3.057 89.66 38.605 89.52 38.747 71.502 38.747 71.502 38.464" fill="#231f20"/><rect x="71.36" y="1.308" width=".283" height="39.048" fill="#231f20"/><rect x="70.668" y="1.308" width=".282" height="39.048" fill="#231f20"/><rect x="71.13" y="1.308" width=".283" height="39.048" fill="#231f20"/><rect x="52.999" y="3.469" width="17.417" height="34.725" fill="url(#uuid-79d66a03-a1fd-4fb1-9671-39df7a2f4aa6)"/><rect x="52.999" y="3.469" width="17.417" height="34.725" fill="none"/><polygon points="53 3.469 53 3.328 70.558 3.328 70.558 38.334 52.857 38.334 52.857 3.328 53 3.328 53 3.469 53.141 3.469 53.141 38.051 70.274 38.051 70.274 3.611 53 3.611 53 3.469 53.141 3.469 53 3.469" fill="#231f20"/><rect x="71.501" y="3.469" width="17.626" height="34.725" fill="url(#uuid-481f6d7f-87a7-4b3d-b1c9-7242e03a6bfc)"/><rect x="71.501" y="3.469" width="17.626" height="34.725" fill="none"/><polygon points="71.503 3.469 71.503 3.328 89.269 3.328 89.269 38.334 71.36 38.334 71.36 3.328 71.503 3.328 71.503 3.469 71.644 3.469 71.644 38.05 88.984 38.05 88.984 3.611 71.503 3.611 71.503 3.469 71.644 3.469 71.503 3.469" fill="#231f20"/><path d="M45.854,20.83l-7.845,1.272v-2.542l7.845,1.27ZM43.346,20.969h-9.031v-.277h9.031v.277Z" fill="#231f20"/><path d="M55.939,20.83l7.844-1.27v2.542l-7.844-1.272ZM58.448,20.693h9.03v.276h-9.03v-.276Z" fill="#231f20"/><path d="M15.711,20.83l7.845-1.27v2.542l-7.845-1.272ZM18.223,20.693h9.029v.276h-9.029v-.276Z" fill="#231f20"/><path d="M86.082,20.83l-7.844,1.272v-2.542l7.844,1.27ZM83.573,20.969h-9.031v-.277h9.031v.277Z" fill="#231f20"/><path d="M101.061,50.336l.301-.458.294.458.261-.171-.309-.445.473-.15-.09-.288-.478.185.02-.506h-.349l.022.506-.48-.185-.089.288.472.15-.301.445.253.171ZM98.352,53.251l-.602-1.485.608-1.485h-.499l-.437,1.143-.439-1.143h-.499l.615,1.485-.601,1.485-1.232-2.977h-.575l1.52,3.572h.499l.712-1.745.717,1.745h.5l1.519-3.572h-.581l-1.225,2.977ZM91.595,51.55c.062-.161.146-.303.253-.424.108-.121.234-.216.377-.287.144-.071.297-.106.461-.106.165,0,.32.034.462.103.145.068.272.163.38.283.11.121.195.263.258.425.06.162.092.334.092.516,0,.187-.032.362-.092.524-.063.162-.148.303-.258.424-.108.121-.235.215-.38.284-.142.068-.297.102-.462.102-.164,0-.317-.034-.461-.102-.143-.069-.269-.162-.377-.281-.107-.118-.191-.257-.253-.417-.06-.16-.091-.333-.091-.52s.031-.362.091-.524M93.423,53.764c.22-.1.412-.235.571-.404s.282-.365.369-.588c.086-.224.131-.459.131-.705,0-.251-.046-.488-.135-.711-.089-.224-.212-.42-.369-.589-.156-.169-.348-.303-.57-.404-.225-.1-.468-.15-.734-.15-.263,0-.507.05-.727.15-.222.101-.411.235-.569.404-.157.169-.281.365-.37.589-.088.223-.133.46-.133.711,0,.246.043.481.13.705.087.223.209.419.367.588.157.169.346.304.568.404.221.1.466.15.734.15.271,0,.516-.05.737-.15M87.956,53.288c-.149-.07-.278-.165-.387-.284-.109-.118-.195-.258-.26-.42-.063-.162-.095-.332-.095-.51,0-.169.026-.334.082-.496.054-.162.133-.306.235-.431.104-.126.227-.226.37-.301.144-.075.305-.113.483-.113.114,0,.228.022.344.065.117.043.227.102.329.178.103.075.196.164.278.267.082.102.143.211.184.325v1.026c-.022.109-.072.213-.146.311-.076.098-.165.184-.268.257-.102.073-.212.13-.329.171-.115.041-.228.061-.338.061-.174,0-.334-.035-.482-.106M89.037,53.719c.234-.13.423-.311.564-.544v.301c0,.105.044.198.133.278.089.079.194.119.313.119l.111-.006.154-.021v-.52c-.127-.005-.19-.078-.19-.219v-4.256h-.603v2.135c-.133-.214-.311-.397-.537-.547-.225-.151-.482-.226-.769-.226-.238,0-.455.049-.655.147-.198.098-.369.232-.512.4-.144.169-.255.366-.335.592-.08.226-.12.464-.12.715,0,.246.043.481.127.705.084.223.202.419.351.588.151.169.331.304.541.404.21.1.439.15.685.15.259,0,.507-.065.742-.195M85.886,51.711c0-.214-.016-.412-.051-.595-.034-.182-.092-.341-.174-.476-.082-.134-.192-.239-.329-.314s-.308-.113-.514-.113c-.313,0-.604.075-.872.226-.267.15-.471.351-.611.602v-.767h-.548v3.572h.601v-2.155c.041-.137.103-.262.185-.376.082-.115.179-.213.287-.295.11-.082.227-.147.35-.195.124-.048.247-.072.37-.072.236,0,.414.087.529.26.116.174.176.452.176.835v1.998h.601v-2.135ZM81.815,48.851h-.602v.753h.602v-.753ZM81.815,50.274h-.602v3.572h.602v-3.572ZM78.845,53.251l-.601-1.485.608-1.485h-.499l-.437,1.143-.439-1.143h-.499l.616,1.485-.603,1.485-1.23-2.977h-.576l1.52,3.572h.499l.712-1.745.718,1.745h.5l1.518-3.572h-.582l-1.225,2.977ZM70.389,51.821c.013-.169.053-.324.12-.465.066-.142.153-.264.259-.367.109-.102.233-.182.373-.239.142-.057.292-.086.453-.086.16,0,.309.029.451.086.141.057.265.136.373.236.106.1.195.222.266.366.072.144.114.3.127.469h-2.422ZM72.099,53.846c.164-.046.315-.108.449-.188.134-.08.253-.175.355-.284.104-.11.185-.23.243-.363l-.519-.144c-.037.092-.09.174-.161.247-.072.073-.152.134-.244.185-.09.05-.189.09-.294.119-.105.03-.211.045-.321.045-.155,0-.303-.03-.441-.089-.14-.059-.264-.142-.373-.247-.11-.104-.198-.23-.267-.376-.068-.146-.109-.308-.124-.486h2.963l.011-.095.004-.137c0-.237-.043-.467-.127-.688-.084-.221-.204-.415-.36-.581-.155-.167-.342-.3-.564-.401-.222-.1-.467-.15-.735-.15-.27,0-.516.049-.74.147-.223.098-.416.232-.578.4-.162.169-.288.365-.377.589-.088.223-.133.46-.133.711s.045.489.133.715c.089.226.214.423.373.592.16.169.353.302.575.4.224.098.47.147.74.147.177,0,.348-.023.512-.068M68.063,53.141c0,.237.068.422.201.554.135.133.32.199.551.199.106,0,.227-.014.363-.041.137-.028.255-.062.357-.103l-.097-.486-.191.059-.179.023c-.127,0-.226-.037-.297-.112-.071-.076-.105-.179-.105-.312v-4.071h-.603v4.29ZM67.078,48.851h-.603v.753h.603v-.753ZM67.078,50.274h-.603v3.572h.603v-3.572ZM65.77,53.189c-.036.023-.102.054-.201.093-.099.038-.207.058-.324.058-.106,0-.197-.03-.275-.089-.078-.06-.121-.155-.129-.288v-2.216h.799v-.473h-.799v-1.19h-.603v1.19h-.485v.473h.485v2.401c0,.256.08.444.239.564.16.121.35.182.569.182.095,0,.187-.008.276-.024l.247-.062.201-.075.145-.065-.145-.479ZM62.972,53.62c.255-.196.383-.461.383-.794,0-.15-.027-.278-.085-.383-.056-.105-.143-.196-.259-.273-.118-.078-.263-.145-.439-.202s-.382-.113-.618-.168c-.151-.036-.28-.07-.388-.102-.106-.032-.194-.069-.263-.11l-.147-.144-.045-.205c0-.205.076-.354.23-.448.153-.093.338-.14.557-.14.197,0,.389.033.575.099.188.066.356.165.506.298l.275-.363c-.16-.141-.357-.256-.589-.342-.233-.087-.484-.13-.752-.13-.193,0-.371.024-.537.072-.167.048-.313.118-.436.212-.123.093-.22.21-.291.349-.069.139-.105.297-.105.475,0,.142.022.26.068.356.045.096.118.178.22.246.099.069.227.128.383.178.155.05.338.103.553.158.169.041.318.079.446.116.127.036.231.078.313.123l.186.161.061.222c0,.187-.077.332-.229.435-.153.102-.36.154-.619.154-.233,0-.455-.04-.664-.12-.209-.08-.419-.2-.629-.359l-.26.403c.2.169.439.298.719.387.278.089.56.133.847.133.434,0,.779-.098,1.033-.294M55.812,53.288c-.147-.07-.276-.165-.386-.284-.11-.118-.197-.257-.259-.417-.065-.16-.097-.328-.097-.506,0-.164.027-.328.082-.489.056-.162.133-.307.233-.435.1-.128.222-.23.366-.308.143-.077.306-.116.489-.116.118,0,.236.02.353.061.116.042.224.1.325.175.099.075.189.163.269.263.08.101.146.212.196.336v1.026c-.024.1-.069.198-.137.294-.068.096-.152.181-.253.257-.101.075-.211.135-.328.181-.119.046-.242.068-.37.068-.173,0-.334-.035-.483-.106M56.486,53.839c.123-.032.239-.079.35-.14.108-.062.211-.137.303-.226.094-.089.175-.188.244-.298v.63c0,.187-.034.349-.1.486-.065.137-.153.25-.263.342-.109.091-.239.159-.386.205-.149.046-.304.068-.469.068-.261,0-.501-.052-.726-.157-.222-.105-.406-.262-.547-.472l-.348.308c.169.246.38.439.633.578.252.139.582.209.988.209.251,0,.486-.035.709-.103.221-.068.414-.169.578-.301.163-.132.294-.295.39-.489.094-.194.142-.419.142-.674v-3.531h-.532v.712c-.151-.223-.337-.408-.556-.554-.218-.146-.477-.219-.778-.219-.247,0-.472.049-.675.147s-.378.232-.523.4c-.147.169-.259.366-.338.592-.08.226-.12.464-.12.715,0,.237.04.465.12.684.079.219.191.413.338.582.145.169.32.303.523.403.203.101.426.151.667.151.127,0,.253-.016.376-.048M53.75,51.711c0-.214-.018-.412-.052-.595-.033-.182-.092-.341-.175-.476-.082-.134-.19-.239-.328-.314-.137-.075-.308-.113-.513-.113-.314,0-.605.075-.872.226-.266.15-.47.351-.613.602v-.767h-.547v3.572h.603v-2.155c.041-.137.102-.262.184-.376.082-.115.178-.213.287-.295.111-.082.226-.147.349-.195.123-.048.246-.072.369-.072.238,0,.414.087.531.26.117.174.174.452.174.835v1.998h.603v-2.135ZM49.678,48.851h-.602v.753h.602v-.753ZM49.678,50.274h-.602v3.572h.602v-3.572ZM48.372,53.189c-.036.023-.104.054-.201.093-.1.038-.207.058-.326.058-.105,0-.196-.03-.274-.089-.077-.06-.121-.155-.13-.288v-2.216h.8v-.473h-.8v-1.19h-.601v1.19h-.487v.473h.487v2.401c0,.256.08.444.239.564.159.121.349.182.567.182.097,0,.189-.008.278-.024l.247-.062.201-.075.143-.065-.143-.479ZM43.028,51.821c.015-.169.055-.324.12-.465.067-.142.153-.264.26-.367.107-.102.231-.182.373-.239.142-.057.291-.086.451-.086s.311.029.452.086.265.136.373.236c.108.1.197.222.266.366.071.144.113.3.127.469h-2.422ZM44.738,53.846c.165-.046.315-.108.449-.188.134-.08.253-.175.356-.284.102-.11.183-.23.243-.363l-.521-.144c-.036.092-.089.174-.16.247-.07.073-.151.134-.243.185-.092.05-.189.09-.295.119-.104.03-.212.045-.32.045-.155,0-.303-.03-.442-.089-.139-.059-.263-.142-.373-.247-.11-.104-.199-.23-.266-.376-.07-.146-.111-.308-.123-.486h2.962l.009-.095.004-.137c0-.237-.042-.467-.127-.688-.084-.221-.204-.415-.359-.581-.154-.167-.343-.3-.563-.401-.222-.1-.467-.15-.737-.15-.268,0-.514.049-.738.147s-.416.232-.578.4c-.162.169-.287.365-.376.589-.09.223-.135.46-.135.711s.045.489.135.715c.089.226.213.423.373.592.158.169.35.302.573.4.225.098.471.147.739.147.178,0,.349-.023.513-.068M38.984,51.821c.015-.169.055-.324.12-.465.067-.142.154-.264.26-.367.107-.102.232-.182.373-.239.142-.057.292-.086.452-.086.159,0,.311.029.451.086.142.057.266.136.373.236.108.1.197.222.267.366.071.144.113.3.126.469h-2.422ZM40.695,53.846c.164-.046.314-.108.448-.188.135-.08.253-.175.357-.284.101-.11.182-.23.243-.363l-.521-.144c-.037.092-.089.174-.161.247-.071.073-.151.134-.243.185-.091.05-.188.09-.294.119-.104.03-.212.045-.321.045-.155,0-.303-.03-.442-.089-.138-.059-.262-.142-.373-.247-.109-.104-.198-.23-.266-.376-.069-.146-.11-.308-.123-.486h2.963l.009-.095.003-.137c0-.237-.042-.467-.126-.688-.085-.221-.204-.415-.359-.581-.155-.167-.344-.3-.564-.401-.221-.1-.466-.15-.736-.15s-.515.049-.739.147-.417.232-.577.4c-.162.169-.288.365-.377.589-.09.223-.134.46-.134.711s.044.489.134.715c.089.226.213.423.373.592.159.169.351.302.574.4.224.098.471.147.739.147.178,0,.349-.023.513-.068M37.665,51.711c0-.214-.019-.412-.056-.595-.036-.182-.096-.341-.178-.476-.082-.134-.192-.239-.332-.314-.138-.075-.31-.113-.515-.113-.588,0-1.042.29-1.363.869-.041-.256-.149-.464-.325-.626-.175-.162-.414-.243-.715-.243-.292,0-.553.072-.786.215-.232.144-.422.348-.567.613v-.767h-.549v3.572h.603v-2.155c.083-.283.221-.51.418-.681.196-.171.415-.257.657-.257.236,0,.415.087.532.26.119.174.179.452.179.835v1.998h.601v-2.148c.082-.279.22-.506.414-.681.195-.176.414-.264.661-.264.238,0,.417.089.538.267.12.178.18.454.18.828v1.998h.603v-2.135ZM29.611,51.711c0-.209-.018-.407-.058-.592-.039-.184-.101-.343-.188-.475s-.202-.237-.349-.315c-.145-.077-.324-.116-.534-.116-.287,0-.552.073-.794.219-.241.146-.432.349-.574.609v-2.19h-.602v4.995h.602v-2.155c.041-.137.102-.262.182-.376.08-.115.171-.213.273-.295.103-.082.213-.147.332-.195.118-.048.237-.072.356-.072.247,0,.433.091.56.271.128.18.193.455.193.824v1.998h.601v-2.135ZM25.418,53.62c.255-.196.383-.461.383-.794,0-.15-.03-.278-.085-.383-.059-.105-.145-.196-.26-.273-.117-.078-.264-.145-.439-.202s-.381-.113-.62-.168c-.149-.036-.278-.07-.386-.102-.107-.032-.195-.069-.262-.11l-.149-.144-.044-.205c0-.205.077-.354.23-.448.152-.093.339-.14.558-.14.196,0,.386.033.574.099.186.066.355.165.507.298l.272-.363c-.158-.141-.354-.256-.588-.342-.232-.087-.483-.13-.753-.13-.19,0-.37.024-.537.072-.166.048-.31.118-.433.212-.124.093-.22.21-.292.349-.071.139-.106.297-.106.475,0,.142.023.26.068.356.046.096.12.178.219.246.102.069.229.128.385.178.154.05.339.103.554.158.168.041.316.079.443.116.129.036.233.078.315.123l.185.161.062.222c0,.187-.077.332-.23.435-.152.102-.358.154-.618.154-.234,0-.454-.04-.664-.12-.209-.08-.419-.2-.629-.359l-.261.403c.201.169.441.298.719.387.278.089.56.133.849.133.432,0,.777-.098,1.033-.294M20.108,53.408c-.096-.036-.179-.087-.25-.15l-.164-.226c-.039-.087-.058-.18-.058-.281,0-.205.094-.372.284-.499.189-.128.434-.192.735-.192.315,0,.618.057.91.171v.527c0,.091-.043.18-.13.267-.095.132-.236.238-.421.318-.184.08-.383.12-.598.12-.11,0-.212-.018-.308-.055M21.043,53.747c.243-.112.444-.275.604-.489l.015.253c.013.1.056.186.126.256.07.071.166.106.283.106l.131-.006.157-.021v-.52c-.128-.005-.191-.078-.191-.219v-1.457c0-.456-.131-.81-.394-1.061-.263-.251-.629-.376-1.098-.376-.465,0-.928.155-1.388.465l.197.39c.398-.278.776-.417,1.137-.417.301,0,.532.083.697.249.164.167.246.396.246.688v.288c-.137-.055-.294-.099-.471-.131-.178-.031-.355-.047-.528-.047-.219,0-.421.027-.604.082-.186.054-.346.13-.48.225-.135.096-.238.211-.311.346-.074.135-.11.284-.11.448,0,.16.032.307.092.441.063.135.147.252.253.353.107.1.234.179.381.236.145.057.303.085.472.085.278,0,.539-.056.784-.167M18.248,53.62c.255-.196.383-.461.383-.794,0-.15-.03-.278-.086-.383-.058-.105-.144-.196-.26-.273-.116-.078-.263-.145-.439-.202-.174-.057-.381-.113-.619-.168-.149-.036-.279-.07-.385-.102-.109-.032-.196-.069-.264-.11l-.148-.144-.044-.205c0-.205.077-.354.229-.448.153-.093.339-.14.558-.14.196,0,.387.033.575.099.186.066.355.165.506.298l.273-.363c-.159-.141-.355-.256-.588-.342-.232-.087-.483-.13-.753-.13-.19,0-.371.024-.537.072-.167.048-.31.118-.433.212-.124.093-.221.21-.291.349-.072.139-.107.297-.107.475,0,.142.023.26.068.356.046.096.12.178.219.246.101.069.229.128.383.178.155.05.341.103.555.158.169.041.316.079.444.116.128.036.233.078.315.123l.185.161.062.222c0,.187-.077.332-.23.435-.152.102-.358.154-.619.154-.232,0-.453-.04-.663-.12-.21-.08-.421-.2-.63-.359l-.26.403c.2.169.441.298.718.387.278.089.562.133.849.133.433,0,.777-.098,1.034-.294M13.779,50.254l-.082-.007h-.116c-.229.018-.443.104-.644.257s-.361.352-.485.598v-.828h-.562v3.572h.603v-2.203c.096-.26.259-.463.489-.609.231-.146.496-.224.797-.233v-.547ZM9.735,53.699c.261-.144.471-.35.63-.619l.014.417c.005.105.047.193.127.263.08.071.178.107.297.107l.113-.004.161-.017v-.52c-.129-.005-.191-.078-.191-.219v-2.833h-.603v2.238c-.105.273-.266.489-.482.646-.217.158-.449.236-.695.236-.507,0-.76-.364-.76-1.094v-2.026h-.601v2.142c0,.497.096.871.287,1.122.191.251.475.376.849.376.309,0,.594-.071.854-.215M4.149,51.55c.062-.161.147-.303.253-.424.108-.121.234-.216.376-.287.145-.071.299-.106.462-.106.164,0,.318.034.463.103.143.068.269.163.38.283.108.121.194.263.256.425.061.162.091.334.091.516,0,.187-.03.362-.091.524-.062.162-.148.303-.256.424-.111.121-.237.215-.38.284-.145.068-.299.102-.463.102-.163,0-.317-.034-.462-.102-.142-.069-.268-.162-.376-.281-.106-.118-.191-.257-.253-.417-.061-.16-.093-.333-.093-.52s.032-.362.093-.524M5.976,53.764c.221-.1.411-.235.572-.404.159-.169.283-.365.369-.588.087-.224.13-.459.13-.705,0-.251-.044-.488-.133-.711-.09-.224-.212-.42-.37-.589-.158-.169-.348-.303-.572-.404-.222-.1-.467-.15-.732-.15s-.507.05-.729.15c-.22.101-.41.235-.568.404-.156.169-.279.365-.369.589-.089.223-.133.46-.133.711,0,.246.043.481.13.705.086.223.208.419.366.588.157.169.346.304.569.404.22.1.465.15.734.15s.515-.05.736-.15M.615,53.846v-2.176h2.184v-.513H.615v-1.622h2.594v-.547H0v4.858h.615Z" fill="#231f20"/></g></g></svg>