<?xml version="1.0" encoding="UTF-8"?><svg width="91.398" height="95.238" overflow="hidden" preserveAspectRatio="xMidYMid meet" id="uuid-ce2269ab-fae0-4c01-9e7e-627184a3c8d3" xmlns="http://www.w3.org/2000/svg" xmlns:xlink="http://www.w3.org/1999/xlink" viewBox="0 0 91.398 95.238"><clipPath id="sy-crop-3e8c0530"><rect x="0" y="0" width="91.398" height="95.238"/></clipPath><g clip-path="url(#sy-crop-3e8c0530)"><defs><linearGradient id="uuid-7cebf741-a17f-44d4-8095-1cb7c88fc6c3" x1="5422.822" y1="838.947" x2="5423.822" y2="838.947" gradientTransform="translate(-76035.475 -491746.743) rotate(90) scale(90.681 -90.687)" gradientUnits="userSpaceOnUse"><stop offset="0" stop-color="#6e90ca"/><stop offset=".6" stop-color="#96a8c5"/><stop offset="1" stop-color="#c2c3c3"/></linearGradient></defs><g id="uuid-551779b7-53b6-4172-8528-1563a6d707b2"><rect x=".354" y=".355" width="90.688" height="90.681" fill="url(#uuid-7cebf741-a17f-44d4-8095-1cb7c88fc6c3)"/><rect x=".354" y=".355" width="90.688" height="90.681" fill="none"/><polygon points=".355 91.036 .355 90.682 90.687 90.682 90.689 .709 .709 .709 .709 91.036 .355 91.036 .355 90.682 .355 91.036 0 91.036 0 0 91.398 0 91.398 91.391 0 91.391 0 91.036 .355 91.036" fill="#231f20"/><rect x="0" y=".354" width=".709" height="90.681" fill="#231f20"/><rect x="90.689" y=".354" width=".709" height="90.681" fill="#231f20"/><rect x=".354" y="90.68" width="90.689" height=".709" fill="#231f20"/><rect x="25.911" y=".354" width=".709" height="90.681" fill="#231f20"/><rect x="64.778" y=".354" width=".708" height="90.681" fill="#231f20"/><rect x=".354" y="25.903" width="90.689" height=".709" fill="#231f20"/><rect x=".354" y="64.771" width="90.689" height=".709" fill="#231f20"/><polyline points="65.45 26.415 46.019 65.284 45.386 64.967 64.816 26.098" fill="#231f20"/><polyline points="45.385 65.284 25.947 26.416 26.581 26.099 46.019 64.968" fill="#231f20"/><rect x="90.689" y=".354" width=".709" height="90.681" fill="#231f20"/><polyline points="45.72 35.504 26.116 26.58 26.41 25.935 46.014 34.859" fill="#231f20"/><polyline points="45.892 55.88 65.497 64.803 65.203 65.448 45.598 56.525" fill="#231f20"/><polyline points="26.118 64.804 45.597 55.882 45.892 56.527 26.413 65.449" fill="#231f20"/><polyline points="65.497 26.58 46.016 35.503 45.721 34.858 65.202 25.935" fill="#231f20"/><rect x="35.295" y="45.337" width="21.024" height=".709" transform="translate(-.144 91.238) rotate(-89.674)" fill="#231f20"/><path d="M78.269,100.946c-.148-.07-.277-.165-.385-.283-.111-.119-.197-.259-.261-.42-.064-.162-.095-.332-.095-.509,0-.169.027-.334.081-.496.055-.161.134-.305.236-.43.103-.125.226-.225.369-.3.143-.076.304-.113.482-.113.113,0,.23.022.345.065.116.043.225.102.327.177.103.075.195.164.277.267.082.102.144.21.185.324v1.025c-.023.109-.071.213-.147.311-.076.098-.164.183-.267.256-.102.073-.212.13-.328.171s-.228.061-.338.061c-.173,0-.333-.035-.481-.106M79.348,101.377c.234-.13.422-.311.563-.543v.3c0,.105.045.197.134.277.09.079.192.119.31.119l.114-.006.153-.021v-.519c-.128-.005-.191-.078-.191-.219v-4.249h-.601v2.132c-.132-.214-.311-.397-.537-.547-.225-.15-.481-.225-.768-.225-.237,0-.454.049-.653.147-.197.098-.368.231-.512.399-.142.169-.255.366-.335.591-.079.225-.119.464-.119.714,0,.246.042.48.126.703.084.224.202.419.353.588.149.168.329.303.54.403.209.1.436.15.682.15.259,0,.506-.065.741-.194M73.484,99.481c.013-.168.053-.323.119-.465.066-.141.154-.263.26-.365.106-.102.231-.182.372-.239.141-.057.291-.086.451-.086.159,0,.309.029.451.086.141.057.265.135.373.236.106.1.195.222.265.365.071.144.113.3.127.468h-2.418ZM75.191,101.503c.164-.046.313-.108.448-.188.134-.08.252-.174.355-.283.102-.11.184-.23.242-.362l-.518-.144c-.037.091-.091.173-.161.246-.071.073-.152.134-.243.184-.091.051-.189.09-.293.12-.105.03-.212.044-.322.044-.154,0-.301-.029-.439-.088-.14-.06-.264-.142-.374-.246-.109-.105-.198-.23-.266-.376-.067-.146-.109-.307-.123-.485h2.958l.011-.096.003-.136c0-.237-.041-.466-.126-.687-.084-.221-.205-.414-.359-.58-.155-.167-.343-.3-.564-.4-.221-.1-.466-.15-.734-.15s-.515.049-.738.147c-.223.098-.416.231-.577.399-.162.169-.287.365-.376.588-.089.223-.133.46-.133.71s.044.489.133.714c.089.225.213.422.372.591.16.168.352.301.574.399.223.098.469.147.738.147.178,0,.348-.023.512-.068M72.438,100.847c-.036.023-.103.054-.201.092-.098.039-.206.058-.325.058-.104,0-.194-.029-.273-.088-.077-.06-.121-.155-.128-.287v-2.213h.798v-.472h-.798v-1.188h-.603v1.188h-.484v.472h.484v2.397c0,.255.08.443.239.564.16.12.349.181.567.181.096,0,.188-.008.277-.024l.246-.062.201-.075.144-.065-.144-.478ZM66.847,100.427c.089.225.213.422.372.591.16.168.351.303.574.403s.469.15.738.15c.178,0,.347-.023.509-.068.162-.046.308-.107.441-.185.132-.077.247-.17.344-.28.1-.109.175-.229.229-.362l-.586-.177-.138.215-.222.174c-.084.05-.177.09-.28.12-.102.029-.206.044-.311.044-.163,0-.317-.034-.461-.102-.143-.069-.268-.163-.375-.284-.108-.121-.193-.263-.255-.427-.065-.164-.097-.339-.097-.526,0-.191.031-.366.092-.526.062-.159.145-.298.249-.416.105-.119.23-.211.376-.277s.301-.099.465-.099c.2,0,.382.047.546.14.164.093.291.224.383.393l.587-.185c-.132-.264-.327-.474-.584-.632-.257-.157-.563-.235-.919-.235-.273,0-.52.049-.741.147-.221.098-.411.23-.57.396-.16.166-.283.361-.369.584-.086.223-.13.46-.13.71s.046.489.133.714M63.3,99.481c.012-.168.052-.323.118-.465.066-.141.153-.263.26-.365s.231-.182.373-.239c.14-.057.291-.086.45-.086s.31.029.451.086c.142.057.266.135.372.236.107.1.196.222.267.365.07.144.112.3.127.468h-2.418ZM65.007,101.503c.163-.046.312-.108.447-.188.134-.08.253-.174.355-.283.102-.11.183-.23.244-.362l-.521-.144c-.036.091-.09.173-.16.246-.07.073-.152.134-.243.184-.091.051-.189.09-.293.12-.105.03-.212.044-.322.044-.154,0-.301-.029-.44-.088-.139-.06-.263-.142-.372-.246-.109-.105-.198-.23-.267-.376-.068-.146-.109-.307-.123-.485h2.958l.01-.096.004-.136c0-.237-.043-.466-.127-.687-.084-.221-.204-.414-.357-.58-.156-.167-.344-.3-.565-.4-.221-.1-.465-.15-.734-.15s-.515.049-.738.147c-.223.098-.416.231-.577.399-.162.169-.287.365-.376.588-.089.223-.132.46-.132.71s.043.489.132.714.213.422.372.591c.161.168.351.301.575.399.222.098.468.147.737.147.178,0,.35-.023.513-.068M61.946,96.516h-.601v.751h.601v-.751ZM61.257,102.688c.131-.057.25-.137.351-.239.102-.102.184-.224.246-.365.061-.142.092-.297.092-.465v-3.682h-.601v3.723l-.048.232-.13.185-.184.119-.212.045-.249-.035-.221-.122-.281.403c.109.1.233.173.372.218.139.046.288.069.449.069.144,0,.283-.029.416-.086M57.674,99.211c.061-.161.145-.303.253-.423.106-.121.231-.217.375-.287.143-.071.297-.106.461-.106s.318.034.461.102c.143.069.27.163.379.284.109.121.196.262.256.423.062.162.092.334.092.516,0,.187-.03.361-.092.523-.06.161-.147.302-.256.423-.109.121-.236.215-.379.284-.143.068-.297.102-.461.102s-.318-.034-.461-.102c-.144-.069-.269-.162-.375-.28-.108-.119-.192-.258-.253-.417-.062-.159-.093-.333-.093-.519,0-.187.031-.361.093-.523M59.497,101.421c.222-.1.411-.235.571-.403.159-.169.282-.364.369-.588.086-.223.129-.457.129-.703,0-.25-.044-.487-.133-.711-.089-.223-.212-.419-.369-.587-.157-.168-.346-.303-.57-.403-.223-.1-.467-.15-.731-.15s-.506.05-.728.15c-.221.1-.41.235-.566.403-.158.168-.281.364-.369.587-.089.224-.133.461-.133.711,0,.246.044.48.129.703.087.224.208.419.366.588.157.168.346.303.567.403.22.1.465.15.734.15s.513-.05.734-.15M56.679,97.917l-.082-.007h-.116c-.227.018-.441.103-.642.256-.2.153-.362.352-.485.598v-.827h-.56v3.566h.601v-2.2c.096-.259.259-.462.49-.608.229-.145.494-.223.794-.232v-.546ZM51.918,100.987c-.114-.043-.22-.102-.321-.177-.1-.076-.189-.164-.266-.267-.078-.102-.141-.213-.191-.331v-1.018c.022-.109.071-.213.146-.311.076-.098.164-.182.267-.252.102-.071.212-.128.329-.171.115-.043.228-.065.337-.065.173,0,.333.035.481.106.148.07.277.166.386.287.11.12.196.262.26.423.064.162.096.332.096.509,0,.169-.028.333-.082.492-.055.159-.134.302-.236.427-.103.125-.225.225-.369.3-.143.075-.304.113-.482.113-.122,0-.241-.021-.355-.065M53.107,101.424c.195-.098.364-.23.505-.396.141-.166.251-.362.328-.587.078-.226.116-.466.116-.721,0-.241-.042-.473-.126-.697-.084-.223-.201-.42-.352-.591-.15-.17-.328-.306-.533-.406-.203-.1-.43-.15-.676-.15-.273,0-.523.067-.748.201-.225.135-.409.311-.55.53v-.67h-.533v5.021h.602v-2.159c.132.224.31.408.537.554.224.145.485.218.781.218.237,0,.453-.049.649-.147M45.644,100.946c-.148-.07-.277-.165-.385-.283-.11-.119-.197-.259-.26-.42-.064-.162-.096-.332-.096-.509,0-.169.027-.334.082-.496.055-.161.133-.305.235-.43.103-.125.226-.225.369-.3.144-.076.304-.113.482-.113.114,0,.23.022.345.065.116.043.225.102.328.177.102.075.194.164.277.267.082.102.143.21.184.324v1.025c-.023.109-.071.213-.147.311-.075.098-.164.183-.266.256-.103.073-.212.13-.328.171s-.229.061-.338.061c-.174,0-.334-.035-.482-.106M46.723,101.377c.235-.13.423-.311.564-.543v.3c0,.105.044.197.133.277.09.079.193.119.311.119l.113-.006.153-.021v-.519c-.127-.005-.191-.078-.191-.219v-4.249h-.601v2.132c-.132-.214-.311-.397-.536-.547-.226-.15-.482-.225-.769-.225-.237,0-.454.049-.652.147-.197.098-.369.231-.512.399-.143.169-.256.366-.335.591-.08.225-.12.464-.12.714,0,.246.042.48.127.703.084.224.201.419.353.588.149.168.33.303.539.403.21.1.436.15.682.15.26,0,.507-.065.741-.194M43.578,99.372c0-.214-.017-.412-.051-.595-.035-.182-.093-.34-.175-.474-.082-.135-.191-.239-.328-.315-.136-.075-.306-.112-.512-.112-.314,0-.605.075-.871.225-.266.15-.47.351-.611.601v-.765h-.547v3.566h.601v-2.152c.041-.136.103-.262.185-.375.082-.114.178-.212.287-.294.109-.082.225-.147.348-.195.123-.048.246-.072.369-.072.237,0,.413.087.529.26.117.173.175.451.175.833v1.995h.601v-2.131ZM37.465,101.066c-.097-.037-.18-.087-.249-.151l-.164-.225c-.04-.086-.059-.18-.059-.28,0-.205.094-.371.283-.499.19-.127.434-.191.734-.191.315,0,.618.057.909.171v.526c0,.091-.043.18-.13.266-.095.132-.235.238-.42.318-.184.08-.383.119-.598.119-.109,0-.211-.018-.306-.054M38.396,101.404c.244-.112.447-.274.605-.489l.014.253c.013.1.056.186.126.256.071.071.165.106.285.106l.128-.006.157-.021v-.519c-.127-.005-.191-.078-.191-.219v-1.455c0-.455-.131-.808-.393-1.059-.262-.25-.627-.375-1.096-.375-.464,0-.927.155-1.387.464l.2.39c.395-.278.773-.417,1.132-.417.301,0,.534.083.698.249.163.167.245.395.245.687v.287c-.137-.055-.294-.098-.471-.13-.178-.032-.353-.048-.526-.048-.219,0-.42.027-.605.082-.183.055-.344.13-.477.225-.135.096-.239.211-.312.345-.073.135-.109.284-.109.448,0,.159.031.306.092.44.062.135.146.252.253.352.107.1.233.179.379.236s.303.085.472.085c.277,0,.538-.056.781-.167M33.222,100.799c0,.237.067.422.203.554.133.132.316.198.548.198.105,0,.226-.014.363-.041.136-.028.256-.062.355-.103l-.096-.485-.191.058-.178.024c-.127,0-.226-.037-.297-.112-.071-.076-.106-.179-.106-.311v-4.065h-.601v4.283ZM29.554,99.481c.014-.168.053-.323.12-.465.066-.141.152-.263.259-.365.107-.102.231-.182.372-.239.141-.057.292-.086.452-.086.159,0,.309.029.45.086.141.057.265.135.372.236.107.1.196.222.267.365.07.144.112.3.126.468h-2.418ZM31.261,101.503c.166-.046.314-.108.448-.188.135-.08.253-.174.355-.283.103-.11.184-.23.243-.362l-.519-.144c-.037.091-.09.173-.161.246-.071.073-.151.134-.242.184-.092.051-.189.09-.293.12-.106.03-.213.044-.322.044-.155,0-.301-.029-.441-.088-.139-.06-.263-.142-.372-.246-.109-.105-.197-.23-.267-.376-.068-.146-.109-.307-.122-.485h2.957l.01-.096.004-.136c0-.237-.042-.466-.126-.687-.085-.221-.204-.414-.359-.58-.155-.167-.343-.3-.564-.4-.22-.1-.465-.15-.733-.15-.27,0-.516.049-.739.147-.223.098-.415.231-.577.399-.161.169-.287.365-.376.588-.088.223-.133.46-.133.71s.045.489.133.714c.089.225.213.422.373.591.159.168.35.301.573.399.224.098.469.147.738.147.178,0,.349-.023.512-.068M27.231,100.799c0,.237.069.422.202.554.134.132.317.198.55.198.104,0,.225-.014.362-.041.136-.028.255-.062.355-.103l-.096-.485-.191.058-.177.024c-.128,0-.226-.037-.298-.112-.07-.076-.105-.179-.105-.311v-4.065h-.602v4.283ZM25.278,100.799c0,.237.067.422.201.554.135.132.318.198.55.198.106,0,.226-.014.362-.041.137-.028.255-.062.355-.103l-.095-.485-.191.058-.178.024c-.128,0-.227-.037-.297-.112-.071-.076-.106-.179-.106-.311v-4.065h-.601v4.283ZM22.245,101.066c-.096-.037-.179-.087-.249-.151l-.164-.225c-.039-.086-.058-.18-.058-.28,0-.205.094-.371.283-.499.189-.127.434-.191.734-.191.314,0,.617.057.909.171v.526c0,.091-.044.18-.13.266-.096.132-.236.238-.42.318-.183.08-.384.119-.598.119-.109,0-.21-.018-.307-.054M23.177,101.404c.244-.112.445-.274.605-.489l.013.253c.014.1.056.186.127.256.07.071.165.106.283.106l.13-.006.157-.021v-.519c-.127-.005-.19-.078-.19-.219v-1.455c0-.455-.132-.808-.394-1.059-.262-.25-.627-.375-1.096-.375-.465,0-.926.155-1.386.464l.197.39c.397-.278.774-.417,1.135-.417.3,0,.532.083.696.249.164.167.246.395.246.687v.287c-.137-.055-.294-.098-.471-.13-.177-.032-.354-.048-.526-.048-.219,0-.421.027-.605.082s-.344.13-.478.225c-.135.096-.237.211-.311.345-.073.135-.109.284-.109.448,0,.159.03.306.092.44.062.135.146.252.253.352.107.1.233.179.38.236.145.057.302.085.47.085.279,0,.539-.056.782-.167M20.886,97.917l-.083-.007h-.116c-.227.018-.441.103-.642.256-.2.153-.362.352-.485.598v-.827h-.56v3.566h.601v-2.2c.096-.259.259-.462.49-.608.229-.145.494-.223.795-.232v-.546ZM15.981,101.066c-.096-.037-.179-.087-.249-.151l-.164-.225c-.039-.086-.057-.18-.057-.28,0-.205.093-.371.282-.499.189-.127.434-.191.734-.191.316,0,.617.057.909.171v.526c0,.091-.043.18-.13.266-.096.132-.236.238-.42.318-.184.08-.384.119-.598.119-.109,0-.211-.018-.307-.054M16.913,101.404c.244-.112.445-.274.605-.489l.013.253c.014.1.056.186.127.256.071.071.165.106.283.106l.13-.006.157-.021v-.519c-.127-.005-.191-.078-.191-.219v-1.455c0-.455-.131-.808-.393-1.059-.261-.25-.627-.375-1.095-.375s-.928.155-1.388.464l.198.39c.396-.278.775-.417,1.134-.417.301,0,.533.083.697.249.164.167.246.395.246.687v.287c-.136-.055-.294-.098-.47-.13-.179-.032-.354-.048-.528-.048-.218,0-.42.027-.604.082-.184.055-.344.13-.478.225-.135.096-.238.211-.311.345-.073.135-.109.284-.109.448,0,.159.032.306.092.44.062.135.147.252.253.352.107.1.233.179.379.236s.303.085.472.085c.277,0,.538-.056.781-.167M11.698,97.2h1.373c.118,0,.231.025.338.075.107.05.2.12.28.211s.144.198.191.321c.048.123.072.256.072.397,0,.136-.02.266-.061.389s-.098.231-.171.324c-.073.094-.161.167-.263.219-.103.052-.218.079-.345.079h-1.414v-2.015ZM11.698,101.503v-1.742h1.448c.214,0,.409-.043.584-.13.175-.086.326-.202.451-.348s.222-.312.29-.499c.069-.187.103-.38.103-.58,0-.192-.037-.379-.109-.564-.073-.184-.175-.351-.305-.499-.129-.148-.284-.266-.464-.355-.18-.089-.377-.133-.591-.133h-2.022v4.85h.615Z" fill="#231f20"/><path d="M70.492,108.683l-.602-1.483.608-1.482h-.498l-.437,1.141-.438-1.141h-.498l.615,1.482-.602,1.483-1.229-2.972h-.574l1.516,3.566h.499l.711-1.742.717,1.742h.498l1.517-3.566h-.581l-1.222,2.972ZM63.732,106.985c.062-.161.146-.303.253-.423.106-.121.231-.216.376-.287.143-.071.297-.106.461-.106s.318.034.461.102c.142.069.27.163.379.284.109.121.195.262.256.423.062.162.093.334.093.516,0,.187-.031.361-.093.523-.061.161-.147.303-.256.423-.109.121-.237.215-.379.284-.143.068-.297.102-.461.102s-.318-.034-.461-.102c-.145-.069-.27-.162-.376-.28-.107-.119-.191-.258-.253-.417-.061-.16-.092-.332-.092-.519s.031-.361.092-.523M65.556,109.195c.221-.1.41-.234.571-.403.159-.168.282-.364.368-.587.087-.224.13-.458.13-.704,0-.25-.044-.487-.133-.71-.089-.224-.212-.419-.369-.588-.158-.168-.347-.303-.57-.403-.223-.1-.467-.15-.731-.15s-.507.05-.728.15c-.221.1-.41.235-.567.403-.157.169-.28.364-.368.588-.089.223-.134.46-.134.71,0,.246.044.48.13.704.087.223.209.419.366.587.157.169.346.303.567.403.22.1.465.15.734.15s.513-.05.734-.15M60.098,108.72c-.148-.07-.276-.165-.386-.283-.109-.119-.196-.259-.259-.42-.064-.162-.096-.332-.096-.509,0-.169.028-.334.082-.495.055-.162.133-.305.235-.431.103-.125.226-.225.37-.3.143-.076.304-.113.481-.113.114,0,.229.022.345.065.116.043.226.102.328.177.102.076.195.164.277.267.082.102.143.21.184.324v1.025c-.023.109-.071.213-.147.311-.075.098-.163.183-.266.256s-.212.13-.328.171c-.116.041-.229.061-.338.061-.173,0-.334-.035-.482-.106M61.178,109.151c.234-.13.422-.311.563-.544v.301c0,.105.045.197.133.277.089.079.193.119.311.119l.112-.007.155-.02v-.519c-.128-.005-.192-.078-.192-.219v-4.249h-.601v2.132c-.132-.214-.31-.397-.536-.547-.225-.15-.482-.225-.769-.225-.236,0-.454.049-.652.147-.198.098-.369.231-.512.399-.144.169-.255.366-.335.591-.08.226-.119.464-.119.714,0,.246.042.48.126.704.084.223.201.419.351.587.151.169.331.303.54.403.21.1.438.15.683.15.26,0,.507-.065.742-.194M58.032,107.146c0-.214-.017-.412-.051-.595-.034-.182-.092-.34-.174-.474-.083-.135-.192-.239-.328-.314-.138-.076-.308-.113-.514-.113-.313,0-.603.075-.869.225-.267.15-.471.351-.612.601v-.765h-.546v3.566h.601v-2.152c.041-.136.102-.262.184-.375.082-.114.178-.212.287-.294.109-.082.225-.147.349-.195.122-.048.245-.072.368-.072.236,0,.413.087.529.26.117.173.175.451.175.833v1.995h.601v-2.131ZM53.967,104.29h-.601v.751h.601v-.751ZM53.967,105.711h-.601v3.566h.601v-3.566ZM51.003,108.683l-.601-1.483.608-1.482h-.499l-.437,1.141-.437-1.141h-.499l.615,1.482-.601,1.483-1.231-2.972h-.572l1.516,3.566h.499l.71-1.742.717,1.742h.499l1.517-3.566h-.581l-1.223,2.972ZM43.042,108.72c-.148-.07-.277-.165-.386-.283-.11-.119-.196-.259-.26-.42-.064-.162-.097-.332-.097-.509,0-.169.029-.334.082-.495.056-.162.135-.305.237-.431.103-.125.226-.225.369-.3.143-.076.304-.113.482-.113.113,0,.228.022.345.065.116.043.225.102.327.177.103.076.195.164.277.267.082.102.143.21.184.324v1.025c-.022.109-.071.213-.146.311-.076.098-.164.183-.267.256-.102.073-.212.13-.328.171-.116.041-.23.061-.338.061-.173,0-.333-.035-.481-.106M44.121,109.151c.234-.13.422-.311.563-.544v.301c0,.105.045.197.134.277.089.079.192.119.311.119l.112-.007.154-.02v-.519c-.128-.005-.192-.078-.192-.219v-4.249h-.601v2.132c-.132-.214-.31-.397-.536-.547-.226-.15-.481-.225-.769-.225-.236,0-.453.049-.652.147-.198.098-.368.231-.513.399-.142.169-.254.366-.335.591-.078.226-.118.464-.118.714,0,.246.042.48.126.704.085.223.201.419.352.587.15.169.33.303.54.403.209.1.436.15.683.15.259,0,.506-.065.741-.194M41.371,105.691l-.082-.007h-.117c-.226.018-.44.104-.641.256-.2.153-.362.352-.485.598v-.827h-.56v3.566h.601v-2.2c.096-.259.259-.462.489-.607.23-.146.495-.224.795-.233v-.546ZM36.466,108.84c-.095-.037-.178-.087-.249-.15l-.163-.226c-.039-.086-.059-.18-.059-.28,0-.205.094-.371.284-.499.188-.127.434-.191.734-.191.315,0,.617.057.908.171v.526c0,.091-.042.18-.129.266-.096.132-.235.238-.42.318-.185.08-.384.119-.598.119-.109,0-.212-.018-.308-.054M37.399,109.178c.244-.112.445-.274.605-.488l.013.252c.014.101.056.186.127.256.069.071.165.106.283.106l.13-.007.156-.02v-.519c-.126-.005-.19-.078-.19-.219v-1.455c0-.455-.131-.808-.393-1.059-.262-.25-.627-.375-1.096-.375-.465,0-.927.155-1.387.464l.198.39c.397-.278.774-.417,1.134-.417.301,0,.533.083.696.249.164.166.246.395.246.687v.287c-.136-.055-.293-.098-.47-.13-.178-.032-.353-.048-.528-.048-.217,0-.419.027-.603.082-.184.055-.344.13-.479.226-.134.095-.237.21-.31.344-.073.135-.109.284-.109.448,0,.159.031.306.092.44.062.135.146.252.253.352.107.1.233.179.379.236.145.057.303.085.471.085.278,0,.539-.056.782-.167M33.413,108.683l-.601-1.483.608-1.482h-.498l-.438,1.141-.437-1.141h-.499l.615,1.482-.601,1.483-1.229-2.972h-.575l1.517,3.566h.499l.71-1.742.718,1.742h.498l1.516-3.566h-.58l-1.223,2.972ZM29.464,108.621c-.035.023-.102.054-.2.092-.098.039-.207.059-.325.059-.105,0-.196-.03-.273-.089-.078-.059-.121-.155-.13-.287v-2.213h.799v-.472h-.799v-1.188h-.601v1.188h-.485v.472h.485v2.397c0,.255.08.443.238.564.16.12.35.181.568.181.096,0,.188-.008.277-.024l.246-.062.2-.075.145-.065-.145-.478ZM25.613,109.13c.259-.143.468-.349.628-.618l.014.417c.003.104.045.192.125.263.081.07.18.105.298.105l.113-.003.16-.017v-.519c-.127-.005-.191-.078-.191-.219v-2.828h-.601v2.234c-.105.273-.265.488-.482.645-.216.158-.447.236-.693.236-.505,0-.758-.364-.758-1.093v-2.022h-.601v2.138c0,.497.095.87.287,1.121.191.25.473.375.846.375.31,0,.595-.072.855-.215M20.035,106.985c.062-.161.146-.303.253-.423.107-.121.232-.216.376-.287.143-.071.297-.106.461-.106s.317.034.461.102c.143.069.27.163.378.284.11.121.196.262.257.423.061.162.092.334.092.516,0,.187-.031.361-.092.523-.061.161-.147.303-.257.423-.108.121-.235.215-.378.284-.144.068-.297.102-.461.102s-.318-.034-.461-.102c-.144-.069-.269-.162-.376-.28-.107-.119-.191-.258-.253-.417-.061-.16-.092-.332-.092-.519s.031-.361.092-.523M21.859,109.195c.221-.1.411-.234.57-.403.159-.168.283-.364.368-.587.088-.224.131-.458.131-.704,0-.25-.045-.487-.133-.71-.089-.224-.212-.419-.37-.588-.156-.168-.346-.303-.569-.403-.225-.1-.467-.15-.731-.15s-.507.05-.728.15c-.222.1-.41.235-.567.403-.158.169-.281.364-.369.588-.089.223-.133.46-.133.71,0,.246.043.48.13.704.086.223.208.419.365.587.157.169.346.303.567.403.221.1.466.15.735.15s.513-.05.734-.15" fill="#231f20"/></g></g></svg>